<svg xmlns="http://www.w3.org/2000/svg" xmlns:xlink="http://www.w3.org/1999/xlink" width="747" zoomAndPan="magnify" viewBox="0 0 560.25 323.249999" height="431" preserveAspectRatio="xMidYMid meet" version="1.0"><defs><clipPath id="2dfd5167e7"><path d="M 107 0.449219 L 390 0.449219 L 390 322.203125 L 107 322.203125 Z M 107 0.449219 " clip-rule="nonzero"/></clipPath><clipPath id="07ff709f65"><path d="M 276 0.449219 L 559.066406 0.449219 L 559.066406 322.203125 L 276 322.203125 Z M 276 0.449219 " clip-rule="nonzero"/></clipPath><clipPath id="01b613e09c"><path d="M 0.859375 148 L 217 148 L 217 322.203125 L 0.859375 322.203125 Z M 0.859375 148 " clip-rule="nonzero"/></clipPath></defs><g clip-path="url(#2dfd5167e7)"><path fill="#2e2c2d" d="M 389.636719 322.058594 L 372.378906 322.058594 C 348.988281 322.058594 325.613281 322.347656 302.242188 322.058594 C 296.773438 321.992188 291.359375 321.4375 285.992188 320.394531 C 280.628906 319.351562 275.398438 317.839844 270.308594 315.851562 C 265.214844 313.863281 260.339844 311.4375 255.6875 308.574219 C 251.03125 305.707031 246.671875 302.445312 242.605469 298.792969 C 231.589844 289.1875 224.164062 277.210938 217.101562 264.789062 C 210.441406 253.066406 203.652344 241.410156 196.945312 229.722656 C 185.929688 210.511719 174.921875 191.339844 163.917969 172.214844 C 159.117188 163.792969 154.3125 155.320312 149.191406 147.058594 C 140.144531 132.3125 126.664062 124.515625 109.550781 122.804688 C 108.84375 122.804688 108.125 122.613281 107.003906 122.453125 C 109.214844 118.527344 111.230469 114.878906 113.410156 111.242188 L 168.867188 15.371094 C 170.691406 12.167969 172.488281 8.96875 174.261719 5.765625 C 177.269531 0.371094 178.472656 -0.09375 184.632812 0.960938 C 199.988281 3.476562 210.90625 11.863281 218.527344 25.296875 C 233.527344 51.683594 248.785156 77.910156 263.945312 104.199219 C 276.082031 125.238281 288.226562 146.265625 300.382812 167.28125 L 336.964844 230.683594 C 349.601562 252.566406 362.234375 274.445312 374.859375 296.328125 C 379.710938 304.6875 384.496094 313.109375 389.636719 322.058594 Z M 389.636719 322.058594 " fill-opacity="1" fill-rule="nonzero"/></g><g clip-path="url(#07ff709f65)"><path fill="#2e2c2d" d="M 559.066406 322.042969 L 546.082031 322.042969 C 521.714844 322.042969 497.367188 322.25 473.015625 322.042969 C 468.019531 322.011719 463.058594 321.585938 458.136719 320.753906 C 453.210938 319.921875 448.382812 318.703125 443.65625 317.089844 C 438.925781 315.480469 434.359375 313.5 429.953125 311.152344 C 425.542969 308.800781 421.355469 306.113281 417.382812 303.085938 C 403.164062 292.566406 394.265625 278.285156 385.90625 263.332031 C 378.574219 250.25 370.9375 237.34375 363.492188 224.359375 C 352.445312 205.148438 341.394531 185.960938 330.335938 166.800781 C 325.855469 159.066406 321.515625 151.207031 316.554688 143.777344 C 309.589844 133.355469 299.4375 127.222656 287.367188 124.261719 C 283.957031 123.414062 280.417969 123.058594 276.671875 122.433594 C 279.683594 117.136719 282.644531 111.882812 285.640625 106.679688 C 289.910156 99.210938 294.234375 91.738281 298.621094 84.265625 C 307.160156 69.558594 315.699219 54.847656 324.238281 40.140625 C 331.203125 28.085938 338.167969 16.011719 345.050781 3.875 C 345.253906 3.363281 345.535156 2.894531 345.894531 2.472656 C 346.253906 2.050781 346.671875 1.699219 347.144531 1.414062 C 347.617188 1.128906 348.125 0.925781 348.667969 0.808594 C 349.207031 0.691406 349.75 0.660156 350.300781 0.722656 C 363.542969 1.539062 374.796875 6.675781 382.527344 17.4375 C 388.835938 26.226562 393.945312 35.898438 399.5 45.3125 C 409.90625 63.105469 420.257812 80.925781 430.558594 98.773438 C 443.621094 121.464844 456.683594 144.203125 469.75 166.992188 C 482.640625 189.410156 495.535156 211.765625 508.429688 234.0625 L 557.320312 318.792969 C 557.882812 319.6875 558.378906 320.695312 559.066406 322.042969 Z M 559.066406 322.042969 " fill-opacity="1" fill-rule="nonzero"/></g><g clip-path="url(#01b613e09c)"><path fill="#2e2c2d" d="M 0.859375 301.242188 L 27.324219 255.4375 C 32.609375 246.277344 37.921875 237.136719 43.191406 227.960938 C 50.875 214.609375 58.496094 201.222656 66.195312 187.9375 C 73.433594 175.429688 80.78125 162.976562 87.96875 150.4375 C 88.140625 150.054688 88.375 149.71875 88.671875 149.421875 C 88.96875 149.125 89.304688 148.886719 89.6875 148.714844 C 90.070312 148.539062 90.46875 148.4375 90.886719 148.410156 C 91.304688 148.382812 91.714844 148.429688 92.117188 148.550781 C 110.957031 151.445312 124.648438 161.566406 134.027344 177.960938 C 142.867188 193.410156 151.878906 208.78125 160.734375 224.214844 C 172.5625 244.789062 184.28125 265.429688 196.113281 286 C 202.355469 296.839844 208.761719 307.585938 215.085938 318.390625 C 215.726562 319.480469 216.238281 320.648438 216.957031 322.058594 L 211.820312 322.058594 C 155.640625 322.058594 99.464844 322.136719 43.285156 322.058594 C 41.246094 322.054688 39.210938 321.933594 37.183594 321.699219 C 35.15625 321.464844 33.152344 321.117188 31.164062 320.652344 C 29.175781 320.191406 27.222656 319.617188 25.300781 318.929688 C 23.378906 318.246094 21.5 317.453125 19.667969 316.554688 C 17.835938 315.65625 16.0625 314.65625 14.34375 313.554688 C 12.625 312.453125 10.972656 311.261719 9.390625 309.972656 C 7.808594 308.683594 6.304688 307.308594 4.878906 305.851562 C 3.453125 304.390625 2.113281 302.855469 0.859375 301.242188 Z M 0.859375 301.242188 " fill-opacity="1" fill-rule="nonzero"/></g><path stroke-linecap="butt" transform="matrix(-0.739721, -0.000000000000000091, 0.000000000000000092, -0.748264, 150.813886, 300.053816)" fill="none" stroke-linejoin="miter" d="M 0.00187408 1.998255 L 23.279233 1.998255 " stroke="#232f3e" stroke-width="4" stroke-opacity="1" stroke-miterlimit="4"/></svg>