<svg xmlns="http://www.w3.org/2000/svg" xmlns:xlink="http://www.w3.org/1999/xlink" width="724" zoomAndPan="magnify" viewBox="0 0 543 454.499987" height="606" preserveAspectRatio="xMidYMid meet" version="1.0"><defs><g/><clipPath id="932fa226e7"><path d="M 103 0.25 L 378 0.25 L 378 311.90625 L 103 311.90625 Z M 103 0.25 " clip-rule="nonzero"/></clipPath><clipPath id="1a77e65adb"><path d="M 268 0.25 L 541.945312 0.25 L 541.945312 311.90625 L 268 311.90625 Z M 268 0.25 " clip-rule="nonzero"/></clipPath><clipPath id="20afb65530"><path d="M 1.039062 143 L 211 143 L 211 311.90625 L 1.039062 311.90625 Z M 1.039062 143 " clip-rule="nonzero"/></clipPath></defs><g clip-path="url(#932fa226e7)"><path fill="#2e2c2d" d="M 377.765625 311.769531 L 361.042969 311.769531 C 338.378906 311.769531 315.730469 312.046875 293.078125 311.769531 C 287.78125 311.707031 282.535156 311.167969 277.335938 310.160156 C 272.136719 309.148438 267.070312 307.679688 262.136719 305.757812 C 257.199219 303.832031 252.476562 301.484375 247.96875 298.707031 C 243.457031 295.929688 239.230469 292.773438 235.292969 289.234375 C 224.617188 279.929688 217.421875 268.328125 210.578125 256.296875 C 204.125 244.941406 197.546875 233.652344 191.046875 222.332031 C 180.375 203.722656 169.707031 185.152344 159.042969 166.625 C 154.390625 158.46875 149.734375 150.265625 144.769531 142.261719 C 136.007812 127.976562 122.945312 120.425781 106.359375 118.765625 C 105.675781 118.765625 104.980469 118.582031 103.894531 118.425781 C 106.035156 114.625 107.988281 111.089844 110.097656 107.570312 L 163.835938 14.703125 C 165.605469 11.601562 167.347656 8.5 169.066406 5.398438 C 171.980469 0.171875 173.144531 -0.277344 179.117188 0.746094 C 193.996094 3.179688 204.574219 11.308594 211.960938 24.320312 C 226.496094 49.878906 241.28125 75.28125 255.972656 100.746094 C 267.730469 121.125 279.5 141.492188 291.28125 161.847656 L 326.726562 223.261719 C 338.972656 244.457031 351.214844 265.652344 363.449219 286.847656 C 368.148438 294.941406 372.785156 303.101562 377.765625 311.769531 Z M 377.765625 311.769531 " fill-opacity="1" fill-rule="nonzero"/></g><g clip-path="url(#1a77e65adb)"><path fill="#2e2c2d" d="M 541.945312 311.753906 L 529.363281 311.753906 C 505.753906 311.753906 482.15625 311.957031 458.5625 311.753906 C 453.722656 311.726562 448.914062 311.308594 444.140625 310.507812 C 439.371094 309.703125 434.691406 308.519531 430.109375 306.957031 C 425.53125 305.398438 421.105469 303.480469 416.832031 301.203125 C 412.5625 298.929688 408.5 296.324219 404.652344 293.390625 C 390.875 283.203125 382.25 269.367188 374.152344 254.882812 C 367.046875 242.214844 359.648438 229.714844 352.433594 217.136719 C 341.730469 198.527344 331.019531 179.941406 320.304688 161.382812 C 315.960938 153.894531 311.757812 146.277344 306.949219 139.082031 C 300.199219 128.988281 290.363281 123.046875 278.667969 120.175781 C 275.363281 119.355469 271.933594 119.015625 268.304688 118.410156 C 271.222656 113.277344 274.089844 108.191406 276.992188 103.148438 C 281.128906 95.910156 285.324219 88.675781 289.574219 81.4375 C 297.847656 67.191406 306.121094 52.941406 314.394531 38.695312 C 321.144531 27.019531 327.890625 15.324219 334.5625 3.570312 C 334.761719 3.070312 335.035156 2.617188 335.382812 2.210938 C 335.726562 1.800781 336.132812 1.460938 336.589844 1.183594 C 337.050781 0.910156 337.542969 0.714844 338.066406 0.597656 C 338.589844 0.484375 339.117188 0.457031 339.652344 0.515625 C 352.480469 1.304688 363.386719 6.285156 370.878906 16.703125 C 376.992188 25.21875 381.941406 34.585938 387.324219 43.707031 C 397.40625 60.941406 407.4375 78.203125 417.417969 95.488281 C 430.078125 117.46875 442.738281 139.496094 455.394531 161.570312 C 467.890625 183.28125 480.382812 204.9375 492.875 226.535156 L 540.253906 308.605469 C 540.796875 309.472656 541.277344 310.449219 541.945312 311.753906 Z M 541.945312 311.753906 " fill-opacity="1" fill-rule="nonzero"/></g><g clip-path="url(#20afb65530)"><path fill="#2e2c2d" d="M 1.039062 291.609375 L 26.683594 247.238281 C 31.804688 238.367188 36.953125 229.511719 42.058594 220.625 C 49.503906 207.691406 56.886719 194.726562 64.351562 181.855469 C 71.363281 169.742188 78.484375 157.675781 85.449219 145.535156 C 85.617188 145.164062 85.84375 144.835938 86.128906 144.546875 C 86.414062 144.261719 86.742188 144.03125 87.113281 143.863281 C 87.484375 143.695312 87.871094 143.597656 88.273438 143.570312 C 88.679688 143.542969 89.078125 143.585938 89.464844 143.703125 C 107.726562 146.511719 120.988281 156.3125 130.082031 172.191406 C 138.644531 187.160156 147.378906 202.046875 155.957031 216.996094 C 167.421875 236.925781 178.777344 256.914062 190.242188 276.84375 C 196.292969 287.34375 202.496094 297.75 208.625 308.21875 C 209.246094 309.273438 209.742188 310.40625 210.441406 311.769531 L 205.460938 311.769531 C 151.023438 311.769531 96.585938 311.847656 42.152344 311.769531 C 40.171875 311.765625 38.203125 311.648438 36.238281 311.421875 C 34.273438 311.195312 32.328125 310.855469 30.402344 310.410156 C 28.476562 309.960938 26.582031 309.402344 24.722656 308.738281 C 22.859375 308.078125 21.039062 307.308594 19.265625 306.4375 C 17.488281 305.566406 15.769531 304.597656 14.105469 303.535156 C 12.4375 302.46875 10.839844 301.308594 9.304688 300.0625 C 7.773438 298.816406 6.316406 297.484375 4.933594 296.070312 C 3.550781 294.65625 2.253906 293.167969 1.039062 291.609375 Z M 1.039062 291.609375 " fill-opacity="1" fill-rule="nonzero"/></g><g fill="#2e2c2d" fill-opacity="1"><g transform="translate(9.091353, 380.589721)"><g><path d="M 25.46875 -19.796875 C 25.46875 -23.203125 25.03125 -25.613281 24.15625 -27.03125 C 23.28125 -28.445312 21.78125 -29.15625 19.65625 -29.15625 C 18.988281 -29.15625 18.300781 -29.117188 17.59375 -29.046875 C 16.882812 -28.972656 16.195312 -28.890625 15.53125 -28.796875 L 15.53125 0 L 4.96875 0 L 4.96875 -36.03125 C 5.863281 -36.269531 6.914062 -36.519531 8.125 -36.78125 C 9.332031 -37.039062 10.609375 -37.273438 11.953125 -37.484375 C 13.296875 -37.703125 14.675781 -37.867188 16.09375 -37.984375 C 17.519531 -38.109375 18.914062 -38.171875 20.28125 -38.171875 C 22.976562 -38.171875 25.164062 -37.828125 26.84375 -37.140625 C 28.53125 -36.453125 29.914062 -35.632812 31 -34.6875 C 32.507812 -35.769531 34.242188 -36.617188 36.203125 -37.234375 C 38.171875 -37.859375 39.984375 -38.171875 41.640625 -38.171875 C 44.617188 -38.171875 47.066406 -37.753906 48.984375 -36.921875 C 50.898438 -36.097656 52.425781 -34.925781 53.5625 -33.40625 C 54.695312 -31.894531 55.472656 -30.097656 55.890625 -28.015625 C 56.316406 -25.941406 56.53125 -23.625 56.53125 -21.0625 L 56.53125 0 L 45.96875 0 L 45.96875 -19.796875 C 45.96875 -23.203125 45.53125 -25.613281 44.65625 -27.03125 C 43.78125 -28.445312 42.28125 -29.15625 40.15625 -29.15625 C 39.582031 -29.15625 38.785156 -29.007812 37.765625 -28.71875 C 36.753906 -28.4375 35.914062 -28.085938 35.25 -27.671875 C 35.582031 -26.578125 35.796875 -25.425781 35.890625 -24.21875 C 35.984375 -23.019531 36.03125 -21.734375 36.03125 -20.359375 L 36.03125 0 L 25.46875 0 Z M 25.46875 -19.796875 "/></g></g></g><g fill="#2e2c2d" fill-opacity="1"><g transform="translate(81.591021, 380.589721)"><g><path d="M 3.1875 -18.375 C 3.1875 -21.6875 3.695312 -24.582031 4.71875 -27.0625 C 5.738281 -29.539062 7.070312 -31.609375 8.71875 -33.265625 C 10.375 -34.921875 12.273438 -36.175781 14.421875 -37.03125 C 16.578125 -37.882812 18.789062 -38.3125 21.0625 -38.3125 C 26.363281 -38.3125 30.550781 -36.691406 33.625 -33.453125 C 36.695312 -30.210938 38.234375 -25.445312 38.234375 -19.15625 C 38.234375 -18.539062 38.207031 -17.863281 38.15625 -17.125 C 38.113281 -16.394531 38.066406 -15.75 38.015625 -15.1875 L 14.046875 -15.1875 C 14.285156 -13.007812 15.300781 -11.28125 17.09375 -10 C 18.894531 -8.726562 21.304688 -8.09375 24.328125 -8.09375 C 26.265625 -8.09375 28.164062 -8.269531 30.03125 -8.625 C 31.90625 -8.976562 33.4375 -9.414062 34.625 -9.9375 L 36.03125 -1.34375 C 35.46875 -1.0625 34.710938 -0.78125 33.765625 -0.5 C 32.816406 -0.21875 31.765625 0.0234375 30.609375 0.234375 C 29.453125 0.453125 28.210938 0.632812 26.890625 0.78125 C 25.566406 0.925781 24.238281 1 22.90625 1 C 19.550781 1 16.628906 0.503906 14.140625 -0.484375 C 11.660156 -1.484375 9.601562 -2.847656 7.96875 -4.578125 C 6.34375 -6.304688 5.140625 -8.351562 4.359375 -10.71875 C 3.578125 -13.082031 3.1875 -15.632812 3.1875 -18.375 Z M 28.015625 -22.421875 C 27.972656 -23.316406 27.820312 -24.1875 27.5625 -25.03125 C 27.300781 -25.882812 26.894531 -26.640625 26.34375 -27.296875 C 25.800781 -27.960938 25.113281 -28.507812 24.28125 -28.9375 C 23.457031 -29.363281 22.429688 -29.578125 21.203125 -29.578125 C 20.023438 -29.578125 19.007812 -29.375 18.15625 -28.96875 C 17.3125 -28.570312 16.601562 -28.039062 16.03125 -27.375 C 15.46875 -26.71875 15.03125 -25.953125 14.71875 -25.078125 C 14.414062 -24.203125 14.191406 -23.316406 14.046875 -22.421875 Z M 28.015625 -22.421875 "/></g></g></g><g fill="#2e2c2d" fill-opacity="1"><g transform="translate(134.370058, 380.589721)"><g><path d="M 3.1875 -18.375 C 3.1875 -21.6875 3.695312 -24.582031 4.71875 -27.0625 C 5.738281 -29.539062 7.070312 -31.609375 8.71875 -33.265625 C 10.375 -34.921875 12.273438 -36.175781 14.421875 -37.03125 C 16.578125 -37.882812 18.789062 -38.3125 21.0625 -38.3125 C 26.363281 -38.3125 30.550781 -36.691406 33.625 -33.453125 C 36.695312 -30.210938 38.234375 -25.445312 38.234375 -19.15625 C 38.234375 -18.539062 38.207031 -17.863281 38.15625 -17.125 C 38.113281 -16.394531 38.066406 -15.75 38.015625 -15.1875 L 14.046875 -15.1875 C 14.285156 -13.007812 15.300781 -11.28125 17.09375 -10 C 18.894531 -8.726562 21.304688 -8.09375 24.328125 -8.09375 C 26.265625 -8.09375 28.164062 -8.269531 30.03125 -8.625 C 31.90625 -8.976562 33.4375 -9.414062 34.625 -9.9375 L 36.03125 -1.34375 C 35.46875 -1.0625 34.710938 -0.78125 33.765625 -0.5 C 32.816406 -0.21875 31.765625 0.0234375 30.609375 0.234375 C 29.453125 0.453125 28.210938 0.632812 26.890625 0.78125 C 25.566406 0.925781 24.238281 1 22.90625 1 C 19.550781 1 16.628906 0.503906 14.140625 -0.484375 C 11.660156 -1.484375 9.601562 -2.847656 7.96875 -4.578125 C 6.34375 -6.304688 5.140625 -8.351562 4.359375 -10.71875 C 3.578125 -13.082031 3.1875 -15.632812 3.1875 -18.375 Z M 28.015625 -22.421875 C 27.972656 -23.316406 27.820312 -24.1875 27.5625 -25.03125 C 27.300781 -25.882812 26.894531 -26.640625 26.34375 -27.296875 C 25.800781 -27.960938 25.113281 -28.507812 24.28125 -28.9375 C 23.457031 -29.363281 22.429688 -29.578125 21.203125 -29.578125 C 20.023438 -29.578125 19.007812 -29.375 18.15625 -28.96875 C 17.3125 -28.570312 16.601562 -28.039062 16.03125 -27.375 C 15.46875 -26.71875 15.03125 -25.953125 14.71875 -25.078125 C 14.414062 -24.203125 14.191406 -23.316406 14.046875 -22.421875 Z M 28.015625 -22.421875 "/></g></g></g><g fill="#2e2c2d" fill-opacity="1"><g transform="translate(187.149089, 380.589721)"><g><path d="M 19.859375 0.703125 C 16.785156 0.660156 14.289062 0.332031 12.375 -0.28125 C 10.457031 -0.894531 8.941406 -1.757812 7.828125 -2.875 C 6.722656 -3.988281 5.96875 -5.335938 5.5625 -6.921875 C 5.164062 -8.503906 4.96875 -10.285156 4.96875 -12.265625 L 4.96875 -53.34375 L 15.53125 -55.046875 L 15.53125 -14.40625 C 15.53125 -13.457031 15.597656 -12.601562 15.734375 -11.84375 C 15.878906 -11.09375 16.15625 -10.457031 16.5625 -9.9375 C 16.96875 -9.414062 17.546875 -8.988281 18.296875 -8.65625 C 19.054688 -8.320312 20.078125 -8.109375 21.359375 -8.015625 Z M 19.859375 0.703125 "/></g></g></g><g fill="#2e2c2d" fill-opacity="1"><g transform="translate(220.916847, 380.589721)"><g/></g></g><g fill="#2e2c2d" fill-opacity="1"><g transform="translate(249.293366, 380.589721)"><g><path d="M 19.21875 -7.375 C 20.257812 -7.375 21.253906 -7.394531 22.203125 -7.4375 C 23.148438 -7.488281 23.90625 -7.5625 24.46875 -7.65625 L 24.46875 -15.671875 C 24.039062 -15.765625 23.398438 -15.859375 22.546875 -15.953125 C 21.703125 -16.054688 20.925781 -16.109375 20.21875 -16.109375 C 19.226562 -16.109375 18.296875 -16.046875 17.421875 -15.921875 C 16.546875 -15.804688 15.773438 -15.582031 15.109375 -15.25 C 14.441406 -14.914062 13.921875 -14.460938 13.546875 -13.890625 C 13.171875 -13.328125 12.984375 -12.625 12.984375 -11.78125 C 12.984375 -10.125 13.535156 -8.972656 14.640625 -8.328125 C 15.753906 -7.691406 17.28125 -7.375 19.21875 -7.375 Z M 18.375 -38.3125 C 21.488281 -38.3125 24.085938 -37.953125 26.171875 -37.234375 C 28.253906 -36.523438 29.921875 -35.507812 31.171875 -34.1875 C 32.429688 -32.863281 33.320312 -31.253906 33.84375 -29.359375 C 34.363281 -27.472656 34.625 -25.367188 34.625 -23.046875 L 34.625 -1.0625 C 33.101562 -0.726562 30.992188 -0.335938 28.296875 0.109375 C 25.609375 0.554688 22.347656 0.78125 18.515625 0.78125 C 16.097656 0.78125 13.910156 0.566406 11.953125 0.140625 C 9.992188 -0.285156 8.300781 -0.984375 6.875 -1.953125 C 5.457031 -2.921875 4.367188 -4.1875 3.609375 -5.75 C 2.859375 -7.3125 2.484375 -9.222656 2.484375 -11.484375 C 2.484375 -13.660156 2.921875 -15.503906 3.796875 -17.015625 C 4.671875 -18.535156 5.835938 -19.742188 7.296875 -20.640625 C 8.765625 -21.535156 10.445312 -22.1875 12.34375 -22.59375 C 14.238281 -23 16.203125 -23.203125 18.234375 -23.203125 C 19.597656 -23.203125 20.8125 -23.140625 21.875 -23.015625 C 22.945312 -22.898438 23.8125 -22.75 24.46875 -22.5625 L 24.46875 -23.546875 C 24.46875 -25.347656 23.921875 -26.789062 22.828125 -27.875 C 21.742188 -28.96875 19.859375 -29.515625 17.171875 -29.515625 C 15.367188 -29.515625 13.59375 -29.382812 11.84375 -29.125 C 10.09375 -28.863281 8.582031 -28.492188 7.3125 -28.015625 L 5.953125 -36.53125 C 6.566406 -36.71875 7.332031 -36.914062 8.25 -37.125 C 9.175781 -37.34375 10.179688 -37.535156 11.265625 -37.703125 C 12.359375 -37.867188 13.507812 -38.007812 14.71875 -38.125 C 15.925781 -38.25 17.144531 -38.3125 18.375 -38.3125 Z M 18.375 -38.3125 "/></g></g></g><g fill="#2e2c2d" fill-opacity="1"><g transform="translate(299.873339, 380.589721)"><g><path d="M 4.96875 -36.03125 C 6.757812 -36.550781 9.070312 -37.035156 11.90625 -37.484375 C 14.75 -37.941406 17.734375 -38.171875 20.859375 -38.171875 C 24.023438 -38.171875 26.660156 -37.753906 28.765625 -36.921875 C 30.867188 -36.097656 32.535156 -34.925781 33.765625 -33.40625 C 34.992188 -31.894531 35.867188 -30.097656 36.390625 -28.015625 C 36.910156 -25.941406 37.171875 -23.625 37.171875 -21.0625 L 37.171875 0 L 26.59375 0 L 26.59375 -19.796875 C 26.59375 -23.203125 26.144531 -25.613281 25.25 -27.03125 C 24.351562 -28.445312 22.675781 -29.15625 20.21875 -29.15625 C 19.457031 -29.15625 18.648438 -29.117188 17.796875 -29.046875 C 16.953125 -28.972656 16.195312 -28.890625 15.53125 -28.796875 L 15.53125 0 L 4.96875 0 Z M 4.96875 -36.03125 "/></g></g></g><g fill="#2e2c2d" fill-opacity="1"><g transform="translate(353.007067, 380.589721)"><g><path d="M 13.96875 -19.859375 C 13.96875 -13.953125 16.359375 -11 21.140625 -11 C 22.222656 -11 23.238281 -11.140625 24.1875 -11.421875 C 25.132812 -11.703125 25.9375 -12.03125 26.59375 -12.40625 L 26.59375 -29.296875 C 26.082031 -29.390625 25.46875 -29.472656 24.75 -29.546875 C 24.039062 -29.617188 23.21875 -29.65625 22.28125 -29.65625 C 19.488281 -29.65625 17.40625 -28.734375 16.03125 -26.890625 C 14.65625 -25.046875 13.96875 -22.703125 13.96875 -19.859375 Z M 37.171875 -4.6875 C 37.171875 1.414062 35.617188 5.945312 32.515625 8.90625 C 29.421875 11.863281 24.632812 13.34375 18.15625 13.34375 C 15.882812 13.34375 13.613281 13.140625 11.34375 12.734375 C 9.070312 12.328125 6.96875 11.796875 5.03125 11.140625 L 6.875 2.265625 C 8.53125 2.929688 10.269531 3.453125 12.09375 3.828125 C 13.914062 4.203125 15.984375 4.390625 18.296875 4.390625 C 21.328125 4.390625 23.46875 3.726562 24.71875 2.40625 C 25.96875 1.082031 26.59375 -0.617188 26.59375 -2.703125 L 26.59375 -4.046875 C 25.46875 -3.523438 24.300781 -3.132812 23.09375 -2.875 C 21.882812 -2.613281 20.570312 -2.484375 19.15625 -2.484375 C 14 -2.484375 10.046875 -4.007812 7.296875 -7.0625 C 4.554688 -10.113281 3.1875 -14.378906 3.1875 -19.859375 C 3.1875 -22.609375 3.613281 -25.101562 4.46875 -27.34375 C 5.320312 -29.59375 6.5625 -31.519531 8.1875 -33.125 C 9.820312 -34.738281 11.820312 -35.984375 14.1875 -36.859375 C 16.550781 -37.734375 19.222656 -38.171875 22.203125 -38.171875 C 23.484375 -38.171875 24.796875 -38.109375 26.140625 -37.984375 C 27.484375 -37.867188 28.816406 -37.710938 30.140625 -37.515625 C 31.472656 -37.328125 32.738281 -37.101562 33.9375 -36.84375 C 35.144531 -36.59375 36.222656 -36.320312 37.171875 -36.03125 Z M 37.171875 -4.6875 "/></g></g></g><g fill="#2e2c2d" fill-opacity="1"><g transform="translate(406.495491, 380.589721)"><g><path d="M 39.859375 -18.734375 C 39.859375 -15.796875 39.429688 -13.109375 38.578125 -10.671875 C 37.734375 -8.234375 36.503906 -6.148438 34.890625 -4.421875 C 33.285156 -2.703125 31.359375 -1.367188 29.109375 -0.421875 C 26.867188 0.523438 24.351562 1 21.5625 1 C 18.820312 1 16.328125 0.523438 14.078125 -0.421875 C 11.835938 -1.367188 9.910156 -2.703125 8.296875 -4.421875 C 6.691406 -6.148438 5.4375 -8.234375 4.53125 -10.671875 C 3.632812 -13.109375 3.1875 -15.796875 3.1875 -18.734375 C 3.1875 -21.660156 3.644531 -24.328125 4.5625 -26.734375 C 5.488281 -29.148438 6.769531 -31.207031 8.40625 -32.90625 C 10.039062 -34.613281 11.976562 -35.941406 14.21875 -36.890625 C 16.46875 -37.835938 18.914062 -38.3125 21.5625 -38.3125 C 24.257812 -38.3125 26.726562 -37.835938 28.96875 -36.890625 C 31.21875 -35.941406 33.144531 -34.613281 34.75 -32.90625 C 36.363281 -31.207031 37.617188 -29.148438 38.515625 -26.734375 C 39.410156 -24.328125 39.859375 -21.660156 39.859375 -18.734375 Z M 29.078125 -18.734375 C 29.078125 -21.992188 28.425781 -24.554688 27.125 -26.421875 C 25.832031 -28.285156 23.976562 -29.21875 21.5625 -29.21875 C 19.15625 -29.21875 17.285156 -28.285156 15.953125 -26.421875 C 14.628906 -24.554688 13.96875 -21.992188 13.96875 -18.734375 C 13.96875 -15.460938 14.628906 -12.867188 15.953125 -10.953125 C 17.285156 -9.046875 19.15625 -8.09375 21.5625 -8.09375 C 23.976562 -8.09375 25.832031 -9.046875 27.125 -10.953125 C 28.425781 -12.867188 29.078125 -15.460938 29.078125 -18.734375 Z M 29.078125 -18.734375 "/></g></g></g><g fill="#2e2c2d" fill-opacity="1"><g transform="translate(460.906073, 380.589721)"><g><path d="M 19.859375 0.703125 C 16.785156 0.660156 14.289062 0.332031 12.375 -0.28125 C 10.457031 -0.894531 8.941406 -1.757812 7.828125 -2.875 C 6.722656 -3.988281 5.96875 -5.335938 5.5625 -6.921875 C 5.164062 -8.503906 4.96875 -10.285156 4.96875 -12.265625 L 4.96875 -53.34375 L 15.53125 -55.046875 L 15.53125 -14.40625 C 15.53125 -13.457031 15.597656 -12.601562 15.734375 -11.84375 C 15.878906 -11.09375 16.15625 -10.457031 16.5625 -9.9375 C 16.96875 -9.414062 17.546875 -8.988281 18.296875 -8.65625 C 19.054688 -8.320312 20.078125 -8.109375 21.359375 -8.015625 Z M 19.859375 0.703125 "/></g></g></g><g fill="#2e2c2d" fill-opacity="1"><g transform="translate(494.673854, 380.589721)"><g><path d="M 19.21875 -7.375 C 20.257812 -7.375 21.253906 -7.394531 22.203125 -7.4375 C 23.148438 -7.488281 23.90625 -7.5625 24.46875 -7.65625 L 24.46875 -15.671875 C 24.039062 -15.765625 23.398438 -15.859375 22.546875 -15.953125 C 21.703125 -16.054688 20.925781 -16.109375 20.21875 -16.109375 C 19.226562 -16.109375 18.296875 -16.046875 17.421875 -15.921875 C 16.546875 -15.804688 15.773438 -15.582031 15.109375 -15.25 C 14.441406 -14.914062 13.921875 -14.460938 13.546875 -13.890625 C 13.171875 -13.328125 12.984375 -12.625 12.984375 -11.78125 C 12.984375 -10.125 13.535156 -8.972656 14.640625 -8.328125 C 15.753906 -7.691406 17.28125 -7.375 19.21875 -7.375 Z M 18.375 -38.3125 C 21.488281 -38.3125 24.085938 -37.953125 26.171875 -37.234375 C 28.253906 -36.523438 29.921875 -35.507812 31.171875 -34.1875 C 32.429688 -32.863281 33.320312 -31.253906 33.84375 -29.359375 C 34.363281 -27.472656 34.625 -25.367188 34.625 -23.046875 L 34.625 -1.0625 C 33.101562 -0.726562 30.992188 -0.335938 28.296875 0.109375 C 25.609375 0.554688 22.347656 0.78125 18.515625 0.78125 C 16.097656 0.78125 13.910156 0.566406 11.953125 0.140625 C 9.992188 -0.285156 8.300781 -0.984375 6.875 -1.953125 C 5.457031 -2.921875 4.367188 -4.1875 3.609375 -5.75 C 2.859375 -7.3125 2.484375 -9.222656 2.484375 -11.484375 C 2.484375 -13.660156 2.921875 -15.503906 3.796875 -17.015625 C 4.671875 -18.535156 5.835938 -19.742188 7.296875 -20.640625 C 8.765625 -21.535156 10.445312 -22.1875 12.34375 -22.59375 C 14.238281 -23 16.203125 -23.203125 18.234375 -23.203125 C 19.597656 -23.203125 20.8125 -23.140625 21.875 -23.015625 C 22.945312 -22.898438 23.8125 -22.75 24.46875 -22.5625 L 24.46875 -23.546875 C 24.46875 -25.347656 23.921875 -26.789062 22.828125 -27.875 C 21.742188 -28.96875 19.859375 -29.515625 17.171875 -29.515625 C 15.367188 -29.515625 13.59375 -29.382812 11.84375 -29.125 C 10.09375 -28.863281 8.582031 -28.492188 7.3125 -28.015625 L 5.953125 -36.53125 C 6.566406 -36.71875 7.332031 -36.914062 8.25 -37.125 C 9.175781 -37.34375 10.179688 -37.535156 11.265625 -37.703125 C 12.359375 -37.867188 13.507812 -38.007812 14.71875 -38.125 C 15.925781 -38.25 17.144531 -38.3125 18.375 -38.3125 Z M 18.375 -38.3125 "/></g></g></g><g fill="#2e2c2d" fill-opacity="1"><g transform="translate(7.923054, 443.780793)"><g><path d="M 8.25 -2.75 C 9.8125 -2.75 10.96875 -2.953125 11.71875 -3.359375 C 12.46875 -3.773438 12.84375 -4.429688 12.84375 -5.328125 C 12.84375 -6.265625 12.472656 -7.003906 11.734375 -7.546875 C 10.992188 -8.097656 9.773438 -8.710938 8.078125 -9.390625 C 7.265625 -9.722656 6.476562 -10.0625 5.71875 -10.40625 C 4.96875 -10.75 4.316406 -11.148438 3.765625 -11.609375 C 3.222656 -12.078125 2.785156 -12.640625 2.453125 -13.296875 C 2.128906 -13.953125 1.96875 -14.757812 1.96875 -15.71875 C 1.96875 -17.601562 2.664062 -19.097656 4.0625 -20.203125 C 5.457031 -21.316406 7.359375 -21.875 9.765625 -21.875 C 10.367188 -21.875 10.96875 -21.835938 11.5625 -21.765625 C 12.164062 -21.703125 12.726562 -21.617188 13.25 -21.515625 C 13.769531 -21.421875 14.226562 -21.316406 14.625 -21.203125 C 15.019531 -21.097656 15.328125 -21.003906 15.546875 -20.921875 L 14.859375 -17.640625 C 14.441406 -17.859375 13.796875 -18.082031 12.921875 -18.3125 C 12.046875 -18.550781 10.992188 -18.671875 9.765625 -18.671875 C 8.703125 -18.671875 7.769531 -18.457031 6.96875 -18.03125 C 6.175781 -17.601562 5.78125 -16.941406 5.78125 -16.046875 C 5.78125 -15.578125 5.867188 -15.164062 6.046875 -14.8125 C 6.222656 -14.457031 6.492188 -14.132812 6.859375 -13.84375 C 7.234375 -13.5625 7.691406 -13.296875 8.234375 -13.046875 C 8.785156 -12.796875 9.445312 -12.535156 10.21875 -12.265625 C 11.226562 -11.878906 12.128906 -11.503906 12.921875 -11.140625 C 13.710938 -10.773438 14.390625 -10.34375 14.953125 -9.84375 C 15.515625 -9.351562 15.945312 -8.757812 16.25 -8.0625 C 16.550781 -7.363281 16.703125 -6.507812 16.703125 -5.5 C 16.703125 -3.53125 15.96875 -2.035156 14.5 -1.015625 C 13.039062 -0.00390625 10.957031 0.5 8.25 0.5 C 6.363281 0.5 4.882812 0.335938 3.8125 0.015625 C 2.75 -0.296875 2.023438 -0.535156 1.640625 -0.703125 L 2.34375 -3.984375 C 2.78125 -3.816406 3.476562 -3.566406 4.4375 -3.234375 C 5.394531 -2.910156 6.664062 -2.75 8.25 -2.75 Z M 8.25 -2.75 "/></g></g></g><g fill="#2e2c2d" fill-opacity="1"><g transform="translate(26.216793, 443.780793)"><g><path d="M 2.09375 -10.625 C 2.09375 -12.507812 2.363281 -14.15625 2.90625 -15.5625 C 3.457031 -16.976562 4.179688 -18.148438 5.078125 -19.078125 C 5.984375 -20.003906 7.023438 -20.703125 8.203125 -21.171875 C 9.378906 -21.640625 10.582031 -21.875 11.8125 -21.875 C 14.6875 -21.875 16.890625 -20.976562 18.421875 -19.1875 C 19.953125 -17.394531 20.71875 -14.664062 20.71875 -11 C 20.71875 -10.832031 20.71875 -10.617188 20.71875 -10.359375 C 20.71875 -10.097656 20.707031 -9.859375 20.6875 -9.640625 L 6.078125 -9.640625 C 6.234375 -7.421875 6.875 -5.738281 8 -4.59375 C 9.125 -3.445312 10.875 -2.875 13.25 -2.875 C 14.59375 -2.875 15.722656 -2.988281 16.640625 -3.21875 C 17.554688 -3.445312 18.242188 -3.671875 18.703125 -3.890625 L 19.25 -0.703125 C 18.78125 -0.453125 17.960938 -0.191406 16.796875 0.078125 C 15.640625 0.359375 14.320312 0.5 12.84375 0.5 C 10.976562 0.5 9.367188 0.21875 8.015625 -0.34375 C 6.660156 -0.90625 5.546875 -1.675781 4.671875 -2.65625 C 3.796875 -3.644531 3.144531 -4.816406 2.71875 -6.171875 C 2.300781 -7.523438 2.09375 -9.007812 2.09375 -10.625 Z M 16.734375 -12.71875 C 16.765625 -14.445312 16.332031 -15.863281 15.4375 -16.96875 C 14.550781 -18.070312 13.332031 -18.625 11.78125 -18.625 C 10.90625 -18.625 10.128906 -18.453125 9.453125 -18.109375 C 8.785156 -17.773438 8.21875 -17.332031 7.75 -16.78125 C 7.289062 -16.238281 6.929688 -15.609375 6.671875 -14.890625 C 6.410156 -14.179688 6.238281 -13.457031 6.15625 -12.71875 Z M 16.734375 -12.71875 "/></g></g></g><g fill="#2e2c2d" fill-opacity="1"><g transform="translate(49.145486, 443.780793)"><g><path d="M 11.15625 -21.78125 C 11.488281 -21.78125 11.863281 -21.757812 12.28125 -21.71875 C 12.707031 -21.6875 13.125 -21.632812 13.53125 -21.5625 C 13.945312 -21.488281 14.328125 -21.414062 14.671875 -21.34375 C 15.015625 -21.28125 15.265625 -21.222656 15.421875 -21.171875 L 14.765625 -17.84375 C 14.460938 -17.957031 13.960938 -18.085938 13.265625 -18.234375 C 12.578125 -18.390625 11.6875 -18.46875 10.59375 -18.46875 C 9.875 -18.46875 9.164062 -18.390625 8.46875 -18.234375 C 7.769531 -18.085938 7.3125 -17.988281 7.09375 -17.9375 L 7.09375 0 L 3.28125 0 L 3.28125 -20.4375 C 4.1875 -20.757812 5.304688 -21.0625 6.640625 -21.34375 C 7.984375 -21.632812 9.488281 -21.78125 11.15625 -21.78125 Z M 11.15625 -21.78125 "/></g></g></g><g fill="#2e2c2d" fill-opacity="1"><g transform="translate(64.978181, 443.780793)"><g><path d="M 19.9375 -21.34375 C 18.875 -17.34375 17.625 -13.507812 16.1875 -9.84375 C 14.75 -6.175781 13.359375 -2.894531 12.015625 0 L 8.578125 0 C 7.234375 -2.894531 5.84375 -6.175781 4.40625 -9.84375 C 2.96875 -13.507812 1.71875 -17.34375 0.65625 -21.34375 L 4.765625 -21.34375 C 5.085938 -20 5.472656 -18.566406 5.921875 -17.046875 C 6.378906 -15.523438 6.859375 -14.019531 7.359375 -12.53125 C 7.867188 -11.039062 8.382812 -9.597656 8.90625 -8.203125 C 9.425781 -6.804688 9.914062 -5.5625 10.375 -4.46875 C 10.84375 -5.5625 11.335938 -6.804688 11.859375 -8.203125 C 12.378906 -9.597656 12.890625 -11.039062 13.390625 -12.53125 C 13.898438 -14.019531 14.378906 -15.523438 14.828125 -17.046875 C 15.285156 -18.566406 15.675781 -20 16 -21.34375 Z M 19.9375 -21.34375 "/></g></g></g><g fill="#2e2c2d" fill-opacity="1"><g transform="translate(85.568889, 443.780793)"><g><path d="M 7.09375 0 L 3.28125 0 L 3.28125 -21.34375 L 7.09375 -21.34375 Z M 5.171875 -25.1875 C 4.484375 -25.1875 3.898438 -25.410156 3.421875 -25.859375 C 2.941406 -26.316406 2.703125 -26.929688 2.703125 -27.703125 C 2.703125 -28.460938 2.941406 -29.066406 3.421875 -29.515625 C 3.898438 -29.972656 4.484375 -30.203125 5.171875 -30.203125 C 5.859375 -30.203125 6.4375 -29.972656 6.90625 -29.515625 C 7.382812 -29.066406 7.625 -28.460938 7.625 -27.703125 C 7.625 -26.929688 7.382812 -26.316406 6.90625 -25.859375 C 6.4375 -25.410156 5.859375 -25.1875 5.171875 -25.1875 Z M 5.171875 -25.1875 "/></g></g></g><g fill="#2e2c2d" fill-opacity="1"><g transform="translate(95.946281, 443.780793)"><g><path d="M 13.046875 0.5 L 12.59375 1.515625 C 13.382812 1.898438 13.957031 2.316406 14.3125 2.765625 C 14.675781 3.222656 14.859375 3.890625 14.859375 4.765625 C 14.859375 5.066406 14.785156 5.394531 14.640625 5.75 C 14.503906 6.101562 14.269531 6.429688 13.9375 6.734375 C 13.613281 7.035156 13.175781 7.28125 12.625 7.46875 C 12.082031 7.65625 11.414062 7.75 10.625 7.75 C 9.914062 7.75 9.265625 7.691406 8.671875 7.578125 C 8.085938 7.472656 7.617188 7.351562 7.265625 7.21875 L 7.71875 4.875 C 8.039062 4.988281 8.382812 5.085938 8.75 5.171875 C 9.125 5.253906 9.546875 5.296875 10.015625 5.296875 C 10.992188 5.296875 11.484375 4.976562 11.484375 4.34375 C 11.484375 4.039062 11.332031 3.785156 11.03125 3.578125 C 10.738281 3.378906 10.316406 3.171875 9.765625 2.953125 L 9.484375 2.828125 C 9.585938 2.503906 9.734375 2.109375 9.921875 1.640625 C 10.117188 1.171875 10.328125 0.734375 10.546875 0.328125 C 9.148438 0.140625 7.925781 -0.257812 6.875 -0.875 C 5.820312 -1.5 4.9375 -2.285156 4.21875 -3.234375 C 3.507812 -4.191406 2.976562 -5.289062 2.625 -6.53125 C 2.269531 -7.78125 2.09375 -9.144531 2.09375 -10.625 C 2.09375 -12.269531 2.332031 -13.773438 2.8125 -15.140625 C 3.289062 -16.503906 3.96875 -17.6875 4.84375 -18.6875 C 5.71875 -19.6875 6.789062 -20.46875 8.0625 -21.03125 C 9.332031 -21.59375 10.75 -21.875 12.3125 -21.875 C 13.269531 -21.875 14.226562 -21.789062 15.1875 -21.625 C 16.144531 -21.457031 17.0625 -21.195312 17.9375 -20.84375 L 17.0625 -17.609375 C 16.488281 -17.878906 15.828125 -18.09375 15.078125 -18.25 C 14.328125 -18.414062 13.523438 -18.5 12.671875 -18.5 C 10.546875 -18.5 8.914062 -17.828125 7.78125 -16.484375 C 6.644531 -15.148438 6.078125 -13.195312 6.078125 -10.625 C 6.078125 -9.476562 6.207031 -8.425781 6.46875 -7.46875 C 6.726562 -6.507812 7.132812 -5.6875 7.6875 -5 C 8.25 -4.320312 8.96875 -3.796875 9.84375 -3.421875 C 10.71875 -3.054688 11.785156 -2.875 13.046875 -2.875 C 14.054688 -2.875 14.972656 -2.96875 15.796875 -3.15625 C 16.617188 -3.351562 17.257812 -3.5625 17.71875 -3.78125 L 18.265625 -0.578125 C 18.046875 -0.460938 17.75 -0.34375 17.375 -0.21875 C 17.007812 -0.101562 16.59375 0 16.125 0.09375 C 15.65625 0.195312 15.15625 0.28125 14.625 0.34375 C 14.09375 0.414062 13.566406 0.46875 13.046875 0.5 Z M 13.046875 0.5 "/></g></g></g><g fill="#2e2c2d" fill-opacity="1"><g transform="translate(115.019352, 443.780793)"><g><path d="M 22.109375 -10.671875 C 22.109375 -8.972656 21.863281 -7.4375 21.375 -6.0625 C 20.882812 -4.695312 20.191406 -3.519531 19.296875 -2.53125 C 18.410156 -1.550781 17.351562 -0.796875 16.125 -0.265625 C 14.894531 0.265625 13.554688 0.53125 12.109375 0.53125 C 10.648438 0.53125 9.304688 0.265625 8.078125 -0.265625 C 6.847656 -0.796875 5.785156 -1.550781 4.890625 -2.53125 C 4.003906 -3.519531 3.316406 -4.695312 2.828125 -6.0625 C 2.335938 -7.4375 2.09375 -8.972656 2.09375 -10.671875 C 2.09375 -12.335938 2.335938 -13.859375 2.828125 -15.234375 C 3.316406 -16.617188 4.003906 -17.800781 4.890625 -18.78125 C 5.785156 -19.769531 6.847656 -20.53125 8.078125 -21.0625 C 9.304688 -21.601562 10.648438 -21.875 12.109375 -21.875 C 13.554688 -21.875 14.894531 -21.601562 16.125 -21.0625 C 17.351562 -20.53125 18.410156 -19.769531 19.296875 -18.78125 C 20.191406 -17.800781 20.882812 -16.617188 21.375 -15.234375 C 21.863281 -13.859375 22.109375 -12.335938 22.109375 -10.671875 Z M 18.140625 -10.671875 C 18.140625 -13.078125 17.597656 -14.984375 16.515625 -16.390625 C 15.429688 -17.796875 13.960938 -18.5 12.109375 -18.5 C 10.242188 -18.5 8.769531 -17.796875 7.6875 -16.390625 C 6.613281 -14.984375 6.078125 -13.078125 6.078125 -10.671875 C 6.078125 -8.265625 6.613281 -6.351562 7.6875 -4.9375 C 8.769531 -3.53125 10.242188 -2.828125 12.109375 -2.828125 C 13.960938 -2.828125 15.429688 -3.53125 16.515625 -4.9375 C 17.597656 -6.351562 18.140625 -8.265625 18.140625 -10.671875 Z M 18.140625 -10.671875 "/></g></g></g><g fill="#2e2c2d" fill-opacity="1"><g transform="translate(139.219583, 443.780793)"><g><path d="M 8.25 -2.75 C 9.8125 -2.75 10.96875 -2.953125 11.71875 -3.359375 C 12.46875 -3.773438 12.84375 -4.429688 12.84375 -5.328125 C 12.84375 -6.265625 12.472656 -7.003906 11.734375 -7.546875 C 10.992188 -8.097656 9.773438 -8.710938 8.078125 -9.390625 C 7.265625 -9.722656 6.476562 -10.0625 5.71875 -10.40625 C 4.96875 -10.75 4.316406 -11.148438 3.765625 -11.609375 C 3.222656 -12.078125 2.785156 -12.640625 2.453125 -13.296875 C 2.128906 -13.953125 1.96875 -14.757812 1.96875 -15.71875 C 1.96875 -17.601562 2.664062 -19.097656 4.0625 -20.203125 C 5.457031 -21.316406 7.359375 -21.875 9.765625 -21.875 C 10.367188 -21.875 10.96875 -21.835938 11.5625 -21.765625 C 12.164062 -21.703125 12.726562 -21.617188 13.25 -21.515625 C 13.769531 -21.421875 14.226562 -21.316406 14.625 -21.203125 C 15.019531 -21.097656 15.328125 -21.003906 15.546875 -20.921875 L 14.859375 -17.640625 C 14.441406 -17.859375 13.796875 -18.082031 12.921875 -18.3125 C 12.046875 -18.550781 10.992188 -18.671875 9.765625 -18.671875 C 8.703125 -18.671875 7.769531 -18.457031 6.96875 -18.03125 C 6.175781 -17.601562 5.78125 -16.941406 5.78125 -16.046875 C 5.78125 -15.578125 5.867188 -15.164062 6.046875 -14.8125 C 6.222656 -14.457031 6.492188 -14.132812 6.859375 -13.84375 C 7.234375 -13.5625 7.691406 -13.296875 8.234375 -13.046875 C 8.785156 -12.796875 9.445312 -12.535156 10.21875 -12.265625 C 11.226562 -11.878906 12.128906 -11.503906 12.921875 -11.140625 C 13.710938 -10.773438 14.390625 -10.34375 14.953125 -9.84375 C 15.515625 -9.351562 15.945312 -8.757812 16.25 -8.0625 C 16.550781 -7.363281 16.703125 -6.507812 16.703125 -5.5 C 16.703125 -3.53125 15.96875 -2.035156 14.5 -1.015625 C 13.039062 -0.00390625 10.957031 0.5 8.25 0.5 C 6.363281 0.5 4.882812 0.335938 3.8125 0.015625 C 2.75 -0.296875 2.023438 -0.535156 1.640625 -0.703125 L 2.34375 -3.984375 C 2.78125 -3.816406 3.476562 -3.566406 4.4375 -3.234375 C 5.394531 -2.910156 6.664062 -2.75 8.25 -2.75 Z M 8.25 -2.75 "/></g></g></g><g fill="#2e2c2d" fill-opacity="1"><g transform="translate(157.513323, 443.780793)"><g/></g></g><g fill="#2e2c2d" fill-opacity="1"><g transform="translate(166.988334, 443.780793)"><g><path d="M 17.0625 -16.828125 C 16.601562 -17.203125 15.9375 -17.566406 15.0625 -17.921875 C 14.1875 -18.285156 13.226562 -18.46875 12.1875 -18.46875 C 11.09375 -18.46875 10.15625 -18.269531 9.375 -17.875 C 8.59375 -17.476562 7.957031 -16.929688 7.46875 -16.234375 C 6.976562 -15.535156 6.625 -14.707031 6.40625 -13.75 C 6.1875 -12.789062 6.078125 -11.765625 6.078125 -10.671875 C 6.078125 -8.179688 6.691406 -6.257812 7.921875 -4.90625 C 9.148438 -3.550781 10.789062 -2.875 12.84375 -2.875 C 13.882812 -2.875 14.753906 -2.921875 15.453125 -3.015625 C 16.148438 -3.109375 16.6875 -3.210938 17.0625 -3.328125 Z M 17.0625 -31.1875 L 20.890625 -31.84375 L 20.890625 -0.609375 C 20.015625 -0.367188 18.890625 -0.125 17.515625 0.125 C 16.148438 0.375 14.578125 0.5 12.796875 0.5 C 11.160156 0.5 9.6875 0.238281 8.375 -0.28125 C 7.0625 -0.800781 5.9375 -1.539062 5 -2.5 C 4.070312 -3.457031 3.351562 -4.625 2.84375 -6 C 2.34375 -7.382812 2.09375 -8.941406 2.09375 -10.671875 C 2.09375 -12.304688 2.300781 -13.804688 2.71875 -15.171875 C 3.144531 -16.546875 3.769531 -17.722656 4.59375 -18.703125 C 5.414062 -19.691406 6.421875 -20.457031 7.609375 -21 C 8.796875 -21.550781 10.15625 -21.828125 11.6875 -21.828125 C 12.925781 -21.828125 14.015625 -21.660156 14.953125 -21.328125 C 15.898438 -21.003906 16.601562 -20.691406 17.0625 -20.390625 Z M 17.0625 -31.1875 "/></g></g></g><g fill="#2e2c2d" fill-opacity="1"><g transform="translate(191.147549, 443.780793)"><g><path d="M 7.09375 0 L 3.28125 0 L 3.28125 -21.34375 L 7.09375 -21.34375 Z M 5.171875 -25.1875 C 4.484375 -25.1875 3.898438 -25.410156 3.421875 -25.859375 C 2.941406 -26.316406 2.703125 -26.929688 2.703125 -27.703125 C 2.703125 -28.460938 2.941406 -29.066406 3.421875 -29.515625 C 3.898438 -29.972656 4.484375 -30.203125 5.171875 -30.203125 C 5.859375 -30.203125 6.4375 -29.972656 6.90625 -29.515625 C 7.382812 -29.066406 7.625 -28.460938 7.625 -27.703125 C 7.625 -26.929688 7.382812 -26.316406 6.90625 -25.859375 C 6.4375 -25.410156 5.859375 -25.1875 5.171875 -25.1875 Z M 5.171875 -25.1875 "/></g></g></g><g fill="#2e2c2d" fill-opacity="1"><g transform="translate(201.524953, 443.780793)"><g><path d="M 16.65625 -2.140625 C 16.332031 -1.921875 15.695312 -1.640625 14.75 -1.296875 C 13.800781 -0.953125 12.703125 -0.78125 11.453125 -0.78125 C 10.160156 -0.78125 8.945312 -0.984375 7.8125 -1.390625 C 6.675781 -1.804688 5.679688 -2.441406 4.828125 -3.296875 C 3.984375 -4.160156 3.316406 -5.234375 2.828125 -6.515625 C 2.335938 -7.804688 2.09375 -9.34375 2.09375 -11.125 C 2.09375 -12.675781 2.320312 -14.101562 2.78125 -15.40625 C 3.25 -16.707031 3.925781 -17.828125 4.8125 -18.765625 C 5.707031 -19.710938 6.796875 -20.453125 8.078125 -20.984375 C 9.367188 -21.515625 10.820312 -21.78125 12.4375 -21.78125 C 14.207031 -21.78125 15.753906 -21.648438 17.078125 -21.390625 C 18.410156 -21.140625 19.53125 -20.90625 20.4375 -20.6875 L 20.4375 -1.640625 C 20.4375 1.640625 19.585938 4.019531 17.890625 5.5 C 16.191406 6.976562 13.617188 7.71875 10.171875 7.71875 C 8.835938 7.71875 7.570312 7.609375 6.375 7.390625 C 5.1875 7.171875 4.15625 6.910156 3.28125 6.609375 L 3.984375 3.28125 C 4.742188 3.582031 5.675781 3.847656 6.78125 4.078125 C 7.894531 4.316406 9.054688 4.4375 10.265625 4.4375 C 12.523438 4.4375 14.15625 3.984375 15.15625 3.078125 C 16.15625 2.171875 16.65625 0.734375 16.65625 -1.234375 Z M 16.625 -17.96875 C 16.238281 -18.082031 15.722656 -18.1875 15.078125 -18.28125 C 14.429688 -18.375 13.5625 -18.421875 12.46875 -18.421875 C 10.414062 -18.421875 8.835938 -17.75 7.734375 -16.40625 C 6.628906 -15.070312 6.078125 -13.296875 6.078125 -11.078125 C 6.078125 -9.847656 6.234375 -8.796875 6.546875 -7.921875 C 6.859375 -7.046875 7.28125 -6.316406 7.8125 -5.734375 C 8.34375 -5.160156 8.957031 -4.738281 9.65625 -4.46875 C 10.351562 -4.195312 11.070312 -4.0625 11.8125 -4.0625 C 12.820312 -4.0625 13.75 -4.203125 14.59375 -4.484375 C 15.445312 -4.773438 16.125 -5.113281 16.625 -5.5 Z M 16.625 -17.96875 "/></g></g></g><g fill="#2e2c2d" fill-opacity="1"><g transform="translate(225.232978, 443.780793)"><g><path d="M 7.09375 0 L 3.28125 0 L 3.28125 -21.34375 L 7.09375 -21.34375 Z M 5.171875 -25.1875 C 4.484375 -25.1875 3.898438 -25.410156 3.421875 -25.859375 C 2.941406 -26.316406 2.703125 -26.929688 2.703125 -27.703125 C 2.703125 -28.460938 2.941406 -29.066406 3.421875 -29.515625 C 3.898438 -29.972656 4.484375 -30.203125 5.171875 -30.203125 C 5.859375 -30.203125 6.4375 -29.972656 6.90625 -29.515625 C 7.382812 -29.066406 7.625 -28.460938 7.625 -27.703125 C 7.625 -26.929688 7.382812 -26.316406 6.90625 -25.859375 C 6.4375 -25.410156 5.859375 -25.1875 5.171875 -25.1875 Z M 5.171875 -25.1875 "/></g></g></g><g fill="#2e2c2d" fill-opacity="1"><g transform="translate(235.61037, 443.780793)"><g><path d="M 6.859375 -21.34375 L 14.9375 -21.34375 L 14.9375 -18.140625 L 6.859375 -18.140625 L 6.859375 -8.28125 C 6.859375 -7.21875 6.9375 -6.335938 7.09375 -5.640625 C 7.257812 -4.941406 7.503906 -4.394531 7.828125 -4 C 8.160156 -3.601562 8.570312 -3.320312 9.0625 -3.15625 C 9.5625 -2.988281 10.140625 -2.90625 10.796875 -2.90625 C 11.941406 -2.90625 12.863281 -3.035156 13.5625 -3.296875 C 14.257812 -3.554688 14.742188 -3.742188 15.015625 -3.859375 L 15.75 -0.703125 C 15.375 -0.503906 14.707031 -0.265625 13.75 0.015625 C 12.789062 0.304688 11.695312 0.453125 10.46875 0.453125 C 9.007812 0.453125 7.804688 0.269531 6.859375 -0.09375 C 5.921875 -0.46875 5.164062 -1.023438 4.59375 -1.765625 C 4.019531 -2.503906 3.613281 -3.410156 3.375 -4.484375 C 3.144531 -5.566406 3.03125 -6.820312 3.03125 -8.25 L 3.03125 -27.28125 L 6.859375 -27.9375 Z M 6.859375 -21.34375 "/></g></g></g><g fill="#2e2c2d" fill-opacity="1"><g transform="translate(252.099347, 443.780793)"><g><path d="M 10.5 -2.75 C 11.40625 -2.75 12.207031 -2.769531 12.90625 -2.8125 C 13.601562 -2.851562 14.179688 -2.925781 14.640625 -3.03125 L 14.640625 -9.390625 C 14.367188 -9.523438 13.925781 -9.640625 13.3125 -9.734375 C 12.695312 -9.835938 11.953125 -9.890625 11.078125 -9.890625 C 10.503906 -9.890625 9.894531 -9.847656 9.25 -9.765625 C 8.601562 -9.679688 8.015625 -9.507812 7.484375 -9.25 C 6.953125 -8.988281 6.507812 -8.632812 6.15625 -8.1875 C 5.800781 -7.738281 5.625 -7.144531 5.625 -6.40625 C 5.625 -5.03125 6.0625 -4.078125 6.9375 -3.546875 C 7.8125 -3.015625 9 -2.75 10.5 -2.75 Z M 10.171875 -21.875 C 11.703125 -21.875 12.992188 -21.675781 14.046875 -21.28125 C 15.109375 -20.882812 15.957031 -20.320312 16.59375 -19.59375 C 17.238281 -18.863281 17.695312 -18 17.96875 -17 C 18.238281 -16.007812 18.375 -14.910156 18.375 -13.703125 L 18.375 -0.375 C 18.050781 -0.3125 17.59375 -0.234375 17 -0.140625 C 16.414062 -0.046875 15.753906 0.0390625 15.015625 0.125 C 14.273438 0.207031 13.472656 0.28125 12.609375 0.34375 C 11.753906 0.414062 10.898438 0.453125 10.046875 0.453125 C 8.847656 0.453125 7.742188 0.328125 6.734375 0.078125 C 5.722656 -0.160156 4.847656 -0.546875 4.109375 -1.078125 C 3.367188 -1.617188 2.789062 -2.328125 2.375 -3.203125 C 1.96875 -4.078125 1.765625 -5.128906 1.765625 -6.359375 C 1.765625 -7.535156 2.003906 -8.546875 2.484375 -9.390625 C 2.960938 -10.242188 3.609375 -10.929688 4.421875 -11.453125 C 5.242188 -11.972656 6.203125 -12.351562 7.296875 -12.59375 C 8.390625 -12.84375 9.539062 -12.96875 10.75 -12.96875 C 11.132812 -12.96875 11.53125 -12.945312 11.9375 -12.90625 C 12.351562 -12.863281 12.742188 -12.804688 13.109375 -12.734375 C 13.472656 -12.671875 13.789062 -12.609375 14.0625 -12.546875 C 14.34375 -12.492188 14.535156 -12.457031 14.640625 -12.4375 L 14.640625 -13.5 C 14.640625 -14.125 14.570312 -14.742188 14.4375 -15.359375 C 14.300781 -15.984375 14.054688 -16.53125 13.703125 -17 C 13.347656 -17.476562 12.863281 -17.863281 12.25 -18.15625 C 11.632812 -18.445312 10.832031 -18.59375 9.84375 -18.59375 C 8.582031 -18.59375 7.476562 -18.5 6.53125 -18.3125 C 5.59375 -18.132812 4.894531 -17.953125 4.4375 -17.765625 L 3.984375 -20.921875 C 4.472656 -21.140625 5.289062 -21.351562 6.4375 -21.5625 C 7.59375 -21.769531 8.835938 -21.875 10.171875 -21.875 Z M 10.171875 -21.875 "/></g></g></g><g fill="#2e2c2d" fill-opacity="1"><g transform="translate(273.510392, 443.780793)"><g><path d="M 7.09375 0 L 3.28125 0 L 3.28125 -21.34375 L 7.09375 -21.34375 Z M 5.171875 -25.1875 C 4.484375 -25.1875 3.898438 -25.410156 3.421875 -25.859375 C 2.941406 -26.316406 2.703125 -26.929688 2.703125 -27.703125 C 2.703125 -28.460938 2.941406 -29.066406 3.421875 -29.515625 C 3.898438 -29.972656 4.484375 -30.203125 5.171875 -30.203125 C 5.859375 -30.203125 6.4375 -29.972656 6.90625 -29.515625 C 7.382812 -29.066406 7.625 -28.460938 7.625 -27.703125 C 7.625 -26.929688 7.382812 -26.316406 6.90625 -25.859375 C 6.4375 -25.410156 5.859375 -25.1875 5.171875 -25.1875 Z M 5.171875 -25.1875 "/></g></g></g><g fill="#2e2c2d" fill-opacity="1"><g transform="translate(283.887784, 443.780793)"><g><path d="M 8.25 -2.75 C 9.8125 -2.75 10.96875 -2.953125 11.71875 -3.359375 C 12.46875 -3.773438 12.84375 -4.429688 12.84375 -5.328125 C 12.84375 -6.265625 12.472656 -7.003906 11.734375 -7.546875 C 10.992188 -8.097656 9.773438 -8.710938 8.078125 -9.390625 C 7.265625 -9.722656 6.476562 -10.0625 5.71875 -10.40625 C 4.96875 -10.75 4.316406 -11.148438 3.765625 -11.609375 C 3.222656 -12.078125 2.785156 -12.640625 2.453125 -13.296875 C 2.128906 -13.953125 1.96875 -14.757812 1.96875 -15.71875 C 1.96875 -17.601562 2.664062 -19.097656 4.0625 -20.203125 C 5.457031 -21.316406 7.359375 -21.875 9.765625 -21.875 C 10.367188 -21.875 10.96875 -21.835938 11.5625 -21.765625 C 12.164062 -21.703125 12.726562 -21.617188 13.25 -21.515625 C 13.769531 -21.421875 14.226562 -21.316406 14.625 -21.203125 C 15.019531 -21.097656 15.328125 -21.003906 15.546875 -20.921875 L 14.859375 -17.640625 C 14.441406 -17.859375 13.796875 -18.082031 12.921875 -18.3125 C 12.046875 -18.550781 10.992188 -18.671875 9.765625 -18.671875 C 8.703125 -18.671875 7.769531 -18.457031 6.96875 -18.03125 C 6.175781 -17.601562 5.78125 -16.941406 5.78125 -16.046875 C 5.78125 -15.578125 5.867188 -15.164062 6.046875 -14.8125 C 6.222656 -14.457031 6.492188 -14.132812 6.859375 -13.84375 C 7.234375 -13.5625 7.691406 -13.296875 8.234375 -13.046875 C 8.785156 -12.796875 9.445312 -12.535156 10.21875 -12.265625 C 11.226562 -11.878906 12.128906 -11.503906 12.921875 -11.140625 C 13.710938 -10.773438 14.390625 -10.34375 14.953125 -9.84375 C 15.515625 -9.351562 15.945312 -8.757812 16.25 -8.0625 C 16.550781 -7.363281 16.703125 -6.507812 16.703125 -5.5 C 16.703125 -3.53125 15.96875 -2.035156 14.5 -1.015625 C 13.039062 -0.00390625 10.957031 0.5 8.25 0.5 C 6.363281 0.5 4.882812 0.335938 3.8125 0.015625 C 2.75 -0.296875 2.023438 -0.535156 1.640625 -0.703125 L 2.34375 -3.984375 C 2.78125 -3.816406 3.476562 -3.566406 4.4375 -3.234375 C 5.394531 -2.910156 6.664062 -2.75 8.25 -2.75 Z M 8.25 -2.75 "/></g></g></g><g fill="#2e2c2d" fill-opacity="1"><g transform="translate(302.181524, 443.780793)"><g/></g></g><g fill="#2e2c2d" fill-opacity="1"><g transform="translate(311.656535, 443.780793)"><g><path d="M 2.09375 -10.625 C 2.09375 -12.507812 2.363281 -14.15625 2.90625 -15.5625 C 3.457031 -16.976562 4.179688 -18.148438 5.078125 -19.078125 C 5.984375 -20.003906 7.023438 -20.703125 8.203125 -21.171875 C 9.378906 -21.640625 10.582031 -21.875 11.8125 -21.875 C 14.6875 -21.875 16.890625 -20.976562 18.421875 -19.1875 C 19.953125 -17.394531 20.71875 -14.664062 20.71875 -11 C 20.71875 -10.832031 20.71875 -10.617188 20.71875 -10.359375 C 20.71875 -10.097656 20.707031 -9.859375 20.6875 -9.640625 L 6.078125 -9.640625 C 6.234375 -7.421875 6.875 -5.738281 8 -4.59375 C 9.125 -3.445312 10.875 -2.875 13.25 -2.875 C 14.59375 -2.875 15.722656 -2.988281 16.640625 -3.21875 C 17.554688 -3.445312 18.242188 -3.671875 18.703125 -3.890625 L 19.25 -0.703125 C 18.78125 -0.453125 17.960938 -0.191406 16.796875 0.078125 C 15.640625 0.359375 14.320312 0.5 12.84375 0.5 C 10.976562 0.5 9.367188 0.21875 8.015625 -0.34375 C 6.660156 -0.90625 5.546875 -1.675781 4.671875 -2.65625 C 3.796875 -3.644531 3.144531 -4.816406 2.71875 -6.171875 C 2.300781 -7.523438 2.09375 -9.007812 2.09375 -10.625 Z M 16.734375 -12.71875 C 16.765625 -14.445312 16.332031 -15.863281 15.4375 -16.96875 C 14.550781 -18.070312 13.332031 -18.625 11.78125 -18.625 C 10.90625 -18.625 10.128906 -18.453125 9.453125 -18.109375 C 8.785156 -17.773438 8.21875 -17.332031 7.75 -16.78125 C 7.289062 -16.238281 6.929688 -15.609375 6.671875 -14.890625 C 6.410156 -14.179688 6.238281 -13.457031 6.15625 -12.71875 Z M 16.734375 -12.71875 "/></g></g></g><g fill="#2e2c2d" fill-opacity="1"><g transform="translate(334.585228, 443.780793)"><g/></g></g><g fill="#2e2c2d" fill-opacity="1"><g transform="translate(344.060239, 443.780793)"><g><path d="M 3.28125 -20.71875 C 4.15625 -20.9375 5.3125 -21.164062 6.75 -21.40625 C 8.1875 -21.65625 9.847656 -21.78125 11.734375 -21.78125 C 13.097656 -21.78125 14.242188 -21.597656 15.171875 -21.234375 C 16.109375 -20.867188 16.890625 -20.328125 17.515625 -19.609375 C 17.710938 -19.742188 18.015625 -19.9375 18.421875 -20.1875 C 18.828125 -20.4375 19.332031 -20.675781 19.9375 -20.90625 C 20.539062 -21.132812 21.210938 -21.335938 21.953125 -21.515625 C 22.691406 -21.691406 23.484375 -21.78125 24.328125 -21.78125 C 25.972656 -21.78125 27.3125 -21.539062 28.34375 -21.0625 C 29.382812 -20.582031 30.195312 -19.90625 30.78125 -19.03125 C 31.375 -18.15625 31.773438 -17.113281 31.984375 -15.90625 C 32.191406 -14.707031 32.296875 -13.398438 32.296875 -11.984375 L 32.296875 0 L 28.46875 0 L 28.46875 -11.15625 C 28.46875 -12.414062 28.40625 -13.492188 28.28125 -14.390625 C 28.164062 -15.296875 27.9375 -16.050781 27.59375 -16.65625 C 27.25 -17.257812 26.78125 -17.703125 26.1875 -17.984375 C 25.601562 -18.273438 24.847656 -18.421875 23.921875 -18.421875 C 22.640625 -18.421875 21.578125 -18.25 20.734375 -17.90625 C 19.898438 -17.5625 19.332031 -17.253906 19.03125 -16.984375 C 19.25 -16.273438 19.410156 -15.492188 19.515625 -14.640625 C 19.628906 -13.796875 19.6875 -12.910156 19.6875 -11.984375 L 19.6875 0 L 15.875 0 L 15.875 -11.15625 C 15.875 -12.414062 15.804688 -13.492188 15.671875 -14.390625 C 15.535156 -15.296875 15.296875 -16.050781 14.953125 -16.65625 C 14.609375 -17.257812 14.140625 -17.703125 13.546875 -17.984375 C 12.960938 -18.273438 12.222656 -18.421875 11.328125 -18.421875 C 10.941406 -18.421875 10.53125 -18.40625 10.09375 -18.375 C 9.65625 -18.351562 9.238281 -18.320312 8.84375 -18.28125 C 8.445312 -18.238281 8.082031 -18.1875 7.75 -18.125 C 7.425781 -18.070312 7.207031 -18.035156 7.09375 -18.015625 L 7.09375 0 L 3.28125 0 Z M 3.28125 -20.71875 "/></g></g></g><g fill="#2e2c2d" fill-opacity="1"><g transform="translate(379.37619, 443.780793)"><g><path d="M 10.5 -2.75 C 11.40625 -2.75 12.207031 -2.769531 12.90625 -2.8125 C 13.601562 -2.851562 14.179688 -2.925781 14.640625 -3.03125 L 14.640625 -9.390625 C 14.367188 -9.523438 13.925781 -9.640625 13.3125 -9.734375 C 12.695312 -9.835938 11.953125 -9.890625 11.078125 -9.890625 C 10.503906 -9.890625 9.894531 -9.847656 9.25 -9.765625 C 8.601562 -9.679688 8.015625 -9.507812 7.484375 -9.25 C 6.953125 -8.988281 6.507812 -8.632812 6.15625 -8.1875 C 5.800781 -7.738281 5.625 -7.144531 5.625 -6.40625 C 5.625 -5.03125 6.0625 -4.078125 6.9375 -3.546875 C 7.8125 -3.015625 9 -2.75 10.5 -2.75 Z M 10.171875 -21.875 C 11.703125 -21.875 12.992188 -21.675781 14.046875 -21.28125 C 15.109375 -20.882812 15.957031 -20.320312 16.59375 -19.59375 C 17.238281 -18.863281 17.695312 -18 17.96875 -17 C 18.238281 -16.007812 18.375 -14.910156 18.375 -13.703125 L 18.375 -0.375 C 18.050781 -0.3125 17.59375 -0.234375 17 -0.140625 C 16.414062 -0.046875 15.753906 0.0390625 15.015625 0.125 C 14.273438 0.207031 13.472656 0.28125 12.609375 0.34375 C 11.753906 0.414062 10.898438 0.453125 10.046875 0.453125 C 8.847656 0.453125 7.742188 0.328125 6.734375 0.078125 C 5.722656 -0.160156 4.847656 -0.546875 4.109375 -1.078125 C 3.367188 -1.617188 2.789062 -2.328125 2.375 -3.203125 C 1.96875 -4.078125 1.765625 -5.128906 1.765625 -6.359375 C 1.765625 -7.535156 2.003906 -8.546875 2.484375 -9.390625 C 2.960938 -10.242188 3.609375 -10.929688 4.421875 -11.453125 C 5.242188 -11.972656 6.203125 -12.351562 7.296875 -12.59375 C 8.390625 -12.84375 9.539062 -12.96875 10.75 -12.96875 C 11.132812 -12.96875 11.53125 -12.945312 11.9375 -12.90625 C 12.351562 -12.863281 12.742188 -12.804688 13.109375 -12.734375 C 13.472656 -12.671875 13.789062 -12.609375 14.0625 -12.546875 C 14.34375 -12.492188 14.535156 -12.457031 14.640625 -12.4375 L 14.640625 -13.5 C 14.640625 -14.125 14.570312 -14.742188 14.4375 -15.359375 C 14.300781 -15.984375 14.054688 -16.53125 13.703125 -17 C 13.347656 -17.476562 12.863281 -17.863281 12.25 -18.15625 C 11.632812 -18.445312 10.832031 -18.59375 9.84375 -18.59375 C 8.582031 -18.59375 7.476562 -18.5 6.53125 -18.3125 C 5.59375 -18.132812 4.894531 -17.953125 4.4375 -17.765625 L 3.984375 -20.921875 C 4.472656 -21.140625 5.289062 -21.351562 6.4375 -21.5625 C 7.59375 -21.769531 8.835938 -21.875 10.171875 -21.875 Z M 10.171875 -21.875 "/></g></g></g><g fill="#2e2c2d" fill-opacity="1"><g transform="translate(400.787235, 443.780793)"><g><path d="M 11.15625 -21.78125 C 11.488281 -21.78125 11.863281 -21.757812 12.28125 -21.71875 C 12.707031 -21.6875 13.125 -21.632812 13.53125 -21.5625 C 13.945312 -21.488281 14.328125 -21.414062 14.671875 -21.34375 C 15.015625 -21.28125 15.265625 -21.222656 15.421875 -21.171875 L 14.765625 -17.84375 C 14.460938 -17.957031 13.960938 -18.085938 13.265625 -18.234375 C 12.578125 -18.390625 11.6875 -18.46875 10.59375 -18.46875 C 9.875 -18.46875 9.164062 -18.390625 8.46875 -18.234375 C 7.769531 -18.085938 7.3125 -17.988281 7.09375 -17.9375 L 7.09375 0 L 3.28125 0 L 3.28125 -20.4375 C 4.1875 -20.757812 5.304688 -21.0625 6.640625 -21.34375 C 7.984375 -21.632812 9.488281 -21.78125 11.15625 -21.78125 Z M 11.15625 -21.78125 "/></g></g></g><g fill="#2e2c2d" fill-opacity="1"><g transform="translate(416.61993, 443.780793)"><g><path d="M 11 -11.734375 C 11.820312 -11.109375 12.6875 -10.328125 13.59375 -9.390625 C 14.507812 -8.460938 15.410156 -7.457031 16.296875 -6.375 C 17.191406 -5.300781 18.035156 -4.207031 18.828125 -3.09375 C 19.617188 -1.988281 20.289062 -0.957031 20.84375 0 L 16.375 0 C 15.800781 -0.957031 15.132812 -1.9375 14.375 -2.9375 C 13.625 -3.9375 12.835938 -4.894531 12.015625 -5.8125 C 11.203125 -6.726562 10.367188 -7.566406 9.515625 -8.328125 C 8.671875 -9.097656 7.863281 -9.742188 7.09375 -10.265625 L 7.09375 0 L 3.28125 0 L 3.28125 -31.1875 L 7.09375 -31.84375 L 7.09375 -12.390625 C 7.75 -13.046875 8.472656 -13.769531 9.265625 -14.5625 C 10.066406 -15.351562 10.847656 -16.160156 11.609375 -16.984375 C 12.378906 -17.804688 13.101562 -18.59375 13.78125 -19.34375 C 14.46875 -20.09375 15.054688 -20.757812 15.546875 -21.34375 L 20.015625 -21.34375 C 19.390625 -20.65625 18.707031 -19.898438 17.96875 -19.078125 C 17.226562 -18.253906 16.460938 -17.425781 15.671875 -16.59375 C 14.878906 -15.757812 14.078125 -14.925781 13.265625 -14.09375 C 12.460938 -13.257812 11.707031 -12.472656 11 -11.734375 Z M 11 -11.734375 "/></g></g></g><g fill="#2e2c2d" fill-opacity="1"><g transform="translate(438.030975, 443.780793)"><g><path d="M 2.09375 -10.625 C 2.09375 -12.507812 2.363281 -14.15625 2.90625 -15.5625 C 3.457031 -16.976562 4.179688 -18.148438 5.078125 -19.078125 C 5.984375 -20.003906 7.023438 -20.703125 8.203125 -21.171875 C 9.378906 -21.640625 10.582031 -21.875 11.8125 -21.875 C 14.6875 -21.875 16.890625 -20.976562 18.421875 -19.1875 C 19.953125 -17.394531 20.71875 -14.664062 20.71875 -11 C 20.71875 -10.832031 20.71875 -10.617188 20.71875 -10.359375 C 20.71875 -10.097656 20.707031 -9.859375 20.6875 -9.640625 L 6.078125 -9.640625 C 6.234375 -7.421875 6.875 -5.738281 8 -4.59375 C 9.125 -3.445312 10.875 -2.875 13.25 -2.875 C 14.59375 -2.875 15.722656 -2.988281 16.640625 -3.21875 C 17.554688 -3.445312 18.242188 -3.671875 18.703125 -3.890625 L 19.25 -0.703125 C 18.78125 -0.453125 17.960938 -0.191406 16.796875 0.078125 C 15.640625 0.359375 14.320312 0.5 12.84375 0.5 C 10.976562 0.5 9.367188 0.21875 8.015625 -0.34375 C 6.660156 -0.90625 5.546875 -1.675781 4.671875 -2.65625 C 3.796875 -3.644531 3.144531 -4.816406 2.71875 -6.171875 C 2.300781 -7.523438 2.09375 -9.007812 2.09375 -10.625 Z M 16.734375 -12.71875 C 16.765625 -14.445312 16.332031 -15.863281 15.4375 -16.96875 C 14.550781 -18.070312 13.332031 -18.625 11.78125 -18.625 C 10.90625 -18.625 10.128906 -18.453125 9.453125 -18.109375 C 8.785156 -17.773438 8.21875 -17.332031 7.75 -16.78125 C 7.289062 -16.238281 6.929688 -15.609375 6.671875 -14.890625 C 6.410156 -14.179688 6.238281 -13.457031 6.15625 -12.71875 Z M 16.734375 -12.71875 "/></g></g></g><g fill="#2e2c2d" fill-opacity="1"><g transform="translate(460.959668, 443.780793)"><g><path d="M 6.859375 -21.34375 L 14.9375 -21.34375 L 14.9375 -18.140625 L 6.859375 -18.140625 L 6.859375 -8.28125 C 6.859375 -7.21875 6.9375 -6.335938 7.09375 -5.640625 C 7.257812 -4.941406 7.503906 -4.394531 7.828125 -4 C 8.160156 -3.601562 8.570312 -3.320312 9.0625 -3.15625 C 9.5625 -2.988281 10.140625 -2.90625 10.796875 -2.90625 C 11.941406 -2.90625 12.863281 -3.035156 13.5625 -3.296875 C 14.257812 -3.554688 14.742188 -3.742188 15.015625 -3.859375 L 15.75 -0.703125 C 15.375 -0.503906 14.707031 -0.265625 13.75 0.015625 C 12.789062 0.304688 11.695312 0.453125 10.46875 0.453125 C 9.007812 0.453125 7.804688 0.269531 6.859375 -0.09375 C 5.921875 -0.46875 5.164062 -1.023438 4.59375 -1.765625 C 4.019531 -2.503906 3.613281 -3.410156 3.375 -4.484375 C 3.144531 -5.566406 3.03125 -6.820312 3.03125 -8.25 L 3.03125 -27.28125 L 6.859375 -27.9375 Z M 6.859375 -21.34375 "/></g></g></g><g fill="#2e2c2d" fill-opacity="1"><g transform="translate(477.448667, 443.780793)"><g><path d="M 7.09375 0 L 3.28125 0 L 3.28125 -21.34375 L 7.09375 -21.34375 Z M 5.171875 -25.1875 C 4.484375 -25.1875 3.898438 -25.410156 3.421875 -25.859375 C 2.941406 -26.316406 2.703125 -26.929688 2.703125 -27.703125 C 2.703125 -28.460938 2.941406 -29.066406 3.421875 -29.515625 C 3.898438 -29.972656 4.484375 -30.203125 5.171875 -30.203125 C 5.859375 -30.203125 6.4375 -29.972656 6.90625 -29.515625 C 7.382812 -29.066406 7.625 -28.460938 7.625 -27.703125 C 7.625 -26.929688 7.382812 -26.316406 6.90625 -25.859375 C 6.4375 -25.410156 5.859375 -25.1875 5.171875 -25.1875 Z M 5.171875 -25.1875 "/></g></g></g><g fill="#2e2c2d" fill-opacity="1"><g transform="translate(487.82606, 443.780793)"><g><path d="M 3.28125 -20.71875 C 4.15625 -20.9375 5.316406 -21.164062 6.765625 -21.40625 C 8.210938 -21.65625 9.882812 -21.78125 11.78125 -21.78125 C 13.46875 -21.78125 14.875 -21.539062 16 -21.0625 C 17.125 -20.582031 18.019531 -19.910156 18.6875 -19.046875 C 19.351562 -18.191406 19.820312 -17.160156 20.09375 -15.953125 C 20.375 -14.753906 20.515625 -13.429688 20.515625 -11.984375 L 20.515625 0 L 16.703125 0 L 16.703125 -11.15625 C 16.703125 -12.46875 16.613281 -13.585938 16.4375 -14.515625 C 16.257812 -15.453125 15.960938 -16.207031 15.546875 -16.78125 C 15.140625 -17.351562 14.59375 -17.769531 13.90625 -18.03125 C 13.226562 -18.289062 12.378906 -18.421875 11.359375 -18.421875 C 10.953125 -18.421875 10.53125 -18.40625 10.09375 -18.375 C 9.65625 -18.351562 9.238281 -18.320312 8.84375 -18.28125 C 8.445312 -18.238281 8.085938 -18.1875 7.765625 -18.125 C 7.453125 -18.070312 7.226562 -18.035156 7.09375 -18.015625 L 7.09375 0 L 3.28125 0 Z M 3.28125 -20.71875 "/></g></g></g><g fill="#2e2c2d" fill-opacity="1"><g transform="translate(511.369997, 443.780793)"><g><path d="M 16.65625 -2.140625 C 16.332031 -1.921875 15.695312 -1.640625 14.75 -1.296875 C 13.800781 -0.953125 12.703125 -0.78125 11.453125 -0.78125 C 10.160156 -0.78125 8.945312 -0.984375 7.8125 -1.390625 C 6.675781 -1.804688 5.679688 -2.441406 4.828125 -3.296875 C 3.984375 -4.160156 3.316406 -5.234375 2.828125 -6.515625 C 2.335938 -7.804688 2.09375 -9.34375 2.09375 -11.125 C 2.09375 -12.675781 2.320312 -14.101562 2.78125 -15.40625 C 3.25 -16.707031 3.925781 -17.828125 4.8125 -18.765625 C 5.707031 -19.710938 6.796875 -20.453125 8.078125 -20.984375 C 9.367188 -21.515625 10.820312 -21.78125 12.4375 -21.78125 C 14.207031 -21.78125 15.753906 -21.648438 17.078125 -21.390625 C 18.410156 -21.140625 19.53125 -20.90625 20.4375 -20.6875 L 20.4375 -1.640625 C 20.4375 1.640625 19.585938 4.019531 17.890625 5.5 C 16.191406 6.976562 13.617188 7.71875 10.171875 7.71875 C 8.835938 7.71875 7.570312 7.609375 6.375 7.390625 C 5.1875 7.171875 4.15625 6.910156 3.28125 6.609375 L 3.984375 3.28125 C 4.742188 3.582031 5.675781 3.847656 6.78125 4.078125 C 7.894531 4.316406 9.054688 4.4375 10.265625 4.4375 C 12.523438 4.4375 14.15625 3.984375 15.15625 3.078125 C 16.15625 2.171875 16.65625 0.734375 16.65625 -1.234375 Z M 16.625 -17.96875 C 16.238281 -18.082031 15.722656 -18.1875 15.078125 -18.28125 C 14.429688 -18.375 13.5625 -18.421875 12.46875 -18.421875 C 10.414062 -18.421875 8.835938 -17.75 7.734375 -16.40625 C 6.628906 -15.070312 6.078125 -13.296875 6.078125 -11.078125 C 6.078125 -9.847656 6.234375 -8.796875 6.546875 -7.921875 C 6.859375 -7.046875 7.28125 -6.316406 7.8125 -5.734375 C 8.34375 -5.160156 8.957031 -4.738281 9.65625 -4.46875 C 10.351562 -4.195312 11.070312 -4.0625 11.8125 -4.0625 C 12.820312 -4.0625 13.75 -4.203125 14.59375 -4.484375 C 15.445312 -4.773438 16.125 -5.113281 16.625 -5.5 Z M 16.625 -17.96875 "/></g></g></g><path stroke-linecap="round" transform="matrix(0.74916, 0, 0, 0.749176, 1.040001, 402.459502)" fill="none" stroke-linejoin="miter" d="M 0.999869 0.997803 L 721.020274 0.997803 " stroke="#000000" stroke-width="2" stroke-opacity="1" stroke-miterlimit="4"/></svg>