<svg xmlns="http://www.w3.org/2000/svg" xmlns:xlink="http://www.w3.org/1999/xlink" id="Camada_1" x="0px" y="0px" viewBox="0 0 354 102.77" style="enable-background:new 0 0 354 102.77;" xml:space="preserve"><style type="text/css">	.st0{fill:#FFFFFF;}	.st1{fill:#FF0000;}</style><g>	<path d="M137.02,34.26h45.67V22.84h-45.67c-6.83,0-12.94,3.01-17.13,7.77c-4.19-4.75-10.3-7.77-17.13-7.77H68.51V0H57.09v25.92  c-3.36-1.95-7.25-3.08-11.42-3.08H0v11.42h45.67c6.31,0,11.42,5.11,11.42,11.42v11.42c0,6.31-5.11,11.42-11.42,11.42H5.71  C2.56,68.51,0,71.07,0,74.22v5.71v22.84h11.42V79.93h34.26c12.61,0,22.84-10.22,22.84-22.84V45.67c0-4.16-1.13-8.06-3.08-11.42  h37.34c6.31,0,11.42,5.11,11.42,11.42v34.26h11.42v-3.08c3.36,1.95,7.25,3.08,11.42,3.08h45.67V68.51h-45.67  c-6.31,0-11.42-5.11-11.42-11.42V45.67C125.61,39.37,130.72,34.26,137.02,34.26"></path>	<path class="st1" d="M228.37,34.26h45.67V22.84h-45.67c-12.61,0-22.84,10.22-22.84,22.84v11.42c0,12.61,10.22,22.84,22.84,22.84  h34.26h8.56h2.85V68.51h-45.67c-6.31,0-11.42-5.11-11.42-11.42V45.67C216.96,39.37,222.07,34.26,228.37,34.26"></path>	<path class="st1" d="M308.33,34.26H354V22.84h-45.67c-12.61,0-22.84,10.22-22.84,22.84v11.41h57.09c0,6.31-5.11,11.42-11.42,11.42  h-45.67v11.42h45.67c12.61,0,22.84-10.22,22.84-22.84V45.67h-11.46l-45.64,0C296.91,39.37,302.02,34.26,308.33,34.26z"></path></g></svg>